<?xml version="1.0" encoding="UTF-8" standalone="no"?>
<svg
   height="1024"
   version="1.1"
   width="1024"
   id="svg16"
   xmlns="http://www.w3.org/2000/svg"
   xmlns:svg="http://www.w3.org/2000/svg">
  <desc
     id="desc2">Created with Snap</desc>
  <defs
     id="defs4" />
  <circle
     cx="512"
     cy="512"
     r="450.56"
     style=""
     fill="#d9af50"
     id="circle6" />
  <g
     fill="#ffffff"
     id="g12">
    <path
       id="ellipse8"
       d="M 772,512 A 260,192 0 0 1 512,704 260,192 0 0 1 252,512 260,192 0 0 1 512,320 260,192 0 0 1 772,512 Z" />
    <path
       id="polygon10"
       d="M 712,752 252,512 h 428 z" />
  </g>
  <g
     aria-label="ACBR"
     id="text14"
     style="font-size:120px;font-family:'Komika Hand';dominant-baseline:central;text-anchor:middle;fill:#d9af50">
    <path
       d="m 436.09993,559.00506 q 0,5.16 -5.4,5.16 -6.84,0 -8.28,-3.84 -0.36,-0.84 -1.92,-7.8 -0.6,-2.4 -1.32,-5.88 -0.72,-3.48 -1.92,-8.04 -0.24,-1.08 -0.6,-2.52 -0.36,-1.44 -1.08,-3.48 -0.24,-0.24 -0.6,-0.6 -0.24,-0.48 -0.48,-1.08 -4.2,0.24 -9.36,1.92 -2.28,0.72 -4.56,1.44 -2.16,0.72 -4.44,1.56 -2.04,0.6 -3.36,0.84 -1.32,0.24 -2.04,0.48 -2.88,1.2 -3.96,3.48 -0.6,0.96 -1.92,5.04 l -3.84,10.68 q -0.24,0.96 -0.72,2.28 -0.48,1.2 -1.44,2.88 -1.2,1.92 -4.32,1.92 -2.88,0 -4.8,-1.56 -2.28,-1.56 -2.28,-4.56 0,-3.12 2.76,-9.84 0.96,-2.64 1.8,-5.16 0.96,-2.52 1.92,-5.16 1.44,-4.8 3.48,-10.2 2.16,-5.52 4.8,-11.76 1.92,-4.32 3.96,-9.48 2.16,-5.16 4.44,-11.28 3.24,-8.64 8.76,-18.12 0.6,-0.96 1.32,-2.28 0.72,-1.44 1.8,-3.24 0.48,-0.84 2.28,-1.44 1.8,-0.72 2.88,-0.72 4.8,0 7.08,4.92 0.24,0.6 0.84,2.88 0.6,2.28 1.68,6.48 l 5.88,22.44 q 0.6,2.64 1.08,4.68 0.6,1.92 1.08,3.24 0.96,1.56 4.32,3 3.12,0.84 4.2,3.48 0.12,0.24 0.12,1.08 0,3 -0.96,4.56 -0.96,0.96 -1.68,1.68 -0.6,0.6 -1.32,1.56 -0.48,0.48 -0.48,1.2 0,-0.12 0.12,0.96 0.24,1.08 0.84,3.36 0.6,2.28 0.96,4.56 0.48,2.16 1.08,4.32 0.6,1.92 1.2,3.84 0.6,1.92 1.2,3.96 1.2,4.44 1.2,8.16 z m -25.44,-42.36 q -0.24,-0.96 -0.72,-3.72 -0.48,-2.76 -1.44,-7.08 -2.04,-9.36 -2.4,-9.72 -0.36,-0.48 -1.44,-0.72 -2.04,2.4 -5.04,10.56 -4.2,11.64 -4.2,12.48 0,0.6 0.48,1.92 h 4.08 l 5.76,-1.32 q 3.96,-1.08 4.92,-2.4 z"
       id="path22" />
    <path
       d="m 512.41992,535.48506 q 0,8.88 -25.2,21.96 -1.32,0.96 -3.12,1.8 -1.8,0.84 -4.2,1.8 -4.92,1.32 -8.16,2.04 -3.12,0.6 -4.8,0.6 -12.24,0 -18.48,-5.04 -6,-4.68 -8.16,-9.6 -1.92,-3.96 -1.92,-12.12 0,-2.04 0.24,-4.32 0.36,-2.4 0.96,-5.16 0.72,-2.76 1.44,-4.92 0.72,-2.28 1.68,-3.96 2.28,-4.44 6.84,-12.96 2.04,-3.48 6,-8.88 3.96,-5.4 10.08,-12.72 0.96,-1.08 2.4,-2.52 1.44,-1.56 3.72,-3.6 3.96,-3.96 6.6,-5.64 5.88,-3.96 12.84,-3.96 7.8,0 10.8,6 2.04,4.32 2.04,12.96 0,9.84 -5.28,9.84 -2.76,0 -4.08,-3.36 -0.36,-1.68 -0.84,-3.24 -0.36,-1.56 -0.6,-3.24 -1.08,-3.36 -3.96,-3.36 -7.32,0 -16.56,11.04 -6.48,7.56 -12.12,18 -3.12,5.4 -4.68,8.16 -1.44,2.76 -1.56,2.88 -3,6.36 -3,12 0,6.36 3,10.2 3.36,3.96 9.72,3.96 5.88,0 12.6,-3.48 1.56,-0.6 4.44,-2.28 2.88,-1.68 7.08,-4.32 3.12,-2.04 5.76,-4.2 2.76,-2.28 5.52,-4.44 3.24,-2.4 6.36,-2.4 3,0 4.8,1.8 1.8,1.68 1.8,4.68 z"
       id="path24" />
    <path
       d="m 587.42012,532.60506 q 0,11.52 -12.72,19.8 -4.8,3 -10.68,5.4 -5.88,2.28 -12.96,3.96 -4.92,0.96 -8.88,1.56 -3.84,0.6 -7.44,0.6 -6.48,0 -13.44,-2.16 -9.12,-2.52 -9.12,-7.56 0,-2.64 2.88,-4.44 3,-1.8 3,-6.24 0,0.48 -0.12,-0.96 0,-1.56 -0.12,-5.04 -0.12,-0.6 -0.12,-5.76 v -14.04 -1.68 q 0,-1.32 -0.12,-2.76 -0.12,-1.56 -0.12,-2.52 v -1.92 -11.88 q 0,-3.12 0.12,-6.12 0.12,-3 0.36,-5.88 0,-1.68 -0.96,-2.64 -0.96,-1.44 -0.48,-4.56 0.6,-1.68 1.2,-2.76 0.72,-1.08 1.44,-1.8 2.76,-3.12 8.76,-3.96 6,-0.96 15.48,-0.96 1.32,0 3.84,0.24 2.52,0.24 6.72,0.84 4.2,0.6 6.6,1.08 2.52,0.48 3.24,0.72 7.2,1.8 12.24,7.44 5.28,5.52 1.32,20.88 -0.6,0.96 -1.32,1.92 -0.72,0.96 -2.04,2.28 -1.92,2.52 -1.92,3 0,1.08 4.44,5.28 2.16,1.8 3.96,4.2 1.8,2.4 3.36,5.28 3.6,6.36 3.6,11.16 z m -22.32,-43.8 q 0,-8.28 -18.84,-8.28 0,0 -2.16,0.24 -2.04,0.12 -5.88,0.48 -0.6,0.12 -1.68,0.36 -0.96,0.12 -2.04,0.72 -2.52,2.28 -2.52,16.56 0,0.6 0,1.44 0.12,0.84 0.24,1.8 0.36,2.4 0.36,3.24 1.2,1.2 2.76,1.2 4.44,0 10.68,-1.92 6.48,-1.8 9.72,-4.44 9.36,-7.2 9.36,-11.4 z m 2.4,50.4 q 9.72,-7.92 1.44,-16.8 -8.28,-8.76 -9.72,-8.76 -0.6,0 -6.24,2.4 -3,1.08 -4.92,1.8 -1.8,0.6 -2.52,0.72 -0.6,0.12 -2.4,0.6 -1.68,0.36 -4.68,0.96 l -2.88,0.96 q -1.68,0.84 -2.88,0.84 -0.24,0 -0.12,-0.12 -0.72,1.2 -0.72,4.32 0,0.72 0,2.16 0.12,1.32 0.12,1.92 0,4.92 0.36,9.24 0.36,4.32 0.96,8.28 l 1.2,1.32 h 0.96 q 3.84,0.12 10.44,-1.08 3.36,-0.6 5.76,-1.08 2.52,-0.6 4.44,-1.32 3.24,-1.08 6,-2.64 2.76,-1.68 5.4,-3.72 z"
       id="path26" />
    <path
       d="m 656.30007,487.36506 -2.4,9.24 q -2.52,3.72 -4.44,6.36 -1.8,2.52 -3.12,3.96 -1.32,1.44 -2.88,3 -1.44,1.56 -3.12,3.24 -5.64,5.28 -5.64,6 0,0 0.12,0.36 0.24,0.36 0.72,1.2 0.36,0.84 1.32,2.28 0.96,1.32 2.4,3.36 1.44,2.04 3.72,5.64 2.4,3.48 5.52,8.52 6.96,16.56 4.8,17.64 l -0.84,3.6 q -1.68,2.16 -6.72,2.64 -6.12,0 -10.08,-8.28 -0.36,-0.72 -0.84,-1.92 -0.48,-1.32 -1.32,-3 -0.6,-0.96 -1.44,-2.52 -0.84,-1.56 -1.8,-3.48 -2.04,-4.32 -3.36,-6.96 -1.2,-2.64 -1.8,-3.48 -3.72,-6.72 -7.2,-8.4 -1.08,-0.36 -2.28,-0.6 -1.2,-0.24 -2.64,-0.24 -2.52,0 -3.6,1.8 -0.24,0.48 -0.36,1.68 -0.12,1.08 -0.36,3.12 -0.24,2.52 -0.36,3.72 0,1.2 -0.12,1.44 -0.36,0.96 -0.6,2.76 -0.24,1.8 -0.6,5.4 -0.36,2.88 -0.72,5.64 -0.36,2.76 -0.96,5.52 -0.6,1.56 -1.08,3.84 -0.48,0.96 -2.16,2.64 -1.68,1.56 -4.56,2.16 -2.64,0.72 -6.24,-0.96 -3.6,-1.68 -2.04,-10.32 0.72,-4.44 1.08,-7.08 0.36,-2.64 0.48,-3.48 0.72,-7.2 0.72,-27 0,-18.84 -2.04,-24.12 -0.24,-0.6 -0.96,-1.68 -0.6,-1.2 -1.8,-3.24 -1.8,-2.64 -1.8,-5.4 0,-4.92 3.24,-6.72 0.6,-0.48 1.68,-0.84 1.08,-0.36 2.64,-0.96 6.84,-2.52 14.64,-3.72 7.8,-1.2 16.8,-1.2 3.84,0 6.96,0.24 3.12,0.12 5.64,0.72 6.48,0.96 12.72,6.12 7.2,5.64 7.08,11.76 z m -16.8,1.32 q -1.8,-6.96 -11.52,-6.84 -4.56,0.84 -7.56,1.44 -3,0.48 -4.68,0.72 -8.16,1.44 -9.24,3 -0.96,1.68 -0.96,7.8 0,14.88 4.56,14.88 2.16,0 10.68,-3.6 17.28,-5.52 18.72,-17.4 z"
       id="path28" />
  </g>
</svg>
